<svg version="1.1" xmlns="http://www.w3.org/2000/svg" xmlns:xlink="http://www.w3.org/1999/xlink" width="512.000000pt" height="512.000000pt" viewBox="0,0,256,256"><g fill="#ffffff" fill-rule="nonzero" stroke="none" stroke-width="1" stroke-linecap="butt" stroke-linejoin="miter" stroke-miterlimit="10" stroke-dasharray="" stroke-dashoffset="0" font-family="none" font-weight="none" font-size="none" text-anchor="none" style="mix-blend-mode: normal"><g transform="translate(-0.0018,-0.07194) scale(0.5,0.5)"><g transform="translate(0,512) scale(0.1,-0.1)"><path d="M895,4781c-27,-13 -180,-159 -462,-442c-456,-459 -445,-445 -428,-536c5,-33 59,-91 443,-475c472,-471 458,-460 547,-444c49,10 111,71 120,119c17,88 16,89 -288,395l-281,282h1609c1396,0 1623,-2 1704,-15c347,-57 647,-272 809,-583c82,-157 132,-344 132,-495c0,-72 21,-119 68,-155c51,-39 133,-39 184,0c59,45 72,85 65,203c-41,664 -498,1193 -1157,1338c-94,21 -111,21 -1755,24l-1659,4l276,277c290,292 307,314 294,385c-10,53 -43,97 -89,117c-53,24 -81,25 -132,1z"></path><path d="M92,2704c-18,-10 -45,-33 -60,-52c-25,-34 -27,-42 -26,-141c2,-381 192,-781 494,-1039c191,-164 405,-269 660,-325c94,-21 111,-21 1755,-24l1659,-4l-276,-277c-306,-307 -314,-318 -288,-404c15,-52 69,-105 115,-114c89,-16 75,-27 547,444c384,384 438,442 443,475c17,92 30,76 -443,549c-472,472 -458,460 -547,444c-46,-9 -100,-62 -115,-114c-26,-86 -18,-97 288,-404l277,-278h-1610c-1746,0 -1696,-1 -1868,55c-399,130 -695,474 -762,886c-8,52 -15,120 -15,152c0,71 -21,119 -67,154c-43,33 -114,41 -161,17z"></path></g></g></g></svg>